<svg xmlns="http://www.w3.org/2000/svg" xmlns:svg="http://www.w3.org/2000/svg" xmlns:xlink="http://www.w3.org/1999/xlink" id="svg2" width="744.094" height="1052.362" version="1.1"><g id="layer1"><path id="path3132" fill="none" fill-rule="evenodd" stroke="#000" stroke-linecap="square" stroke-linejoin="miter" stroke-opacity="1" stroke-width="12.348" d="M 372.104,593.34057 C 372.104,162.54138 372.104,162.54138 372.104,162.54138"/><use id="use4103" width="744.094" height="1052.362" x="0" y="0" transform="matrix(0,1,-1,0,749.98821,5.8369752)" xlink:href="#path3132"/><use id="use5074" width="744.094" height="1052.362" x="0" y="0" transform="matrix(0.8660254,-0.5,0.5,0.8660254,-139.17477,236.68649)" xlink:href="#path3132"/><use id="use5076" width="744.094" height="1052.362" x="0" y="0" transform="matrix(0.5,-0.8660254,0.8660254,0.5,-141.31125,511.22201)" xlink:href="#path3132"/><use id="use6051" width="744.094" height="1052.362" x="0" y="0" transform="matrix(0.5,0.8660254,-0.8660254,0.5,513.30173,-133.28103)" xlink:href="#path3132"/><use id="use6053" width="744.094" height="1052.362" x="0" y="0" transform="matrix(0.8660254,0.5,-0.5,0.8660254,238.76621,-135.41751)" xlink:href="#path3132"/><path id="path2159" fill="#fff" fill-opacity="1" fill-rule="evenodd" stroke="none" stroke-dasharray="none" stroke-dashoffset="0" stroke-linecap="square" stroke-linejoin="miter" stroke-miterlimit="4" stroke-opacity="1" stroke-width="7.087" d="M 727.85715 489.50504 A 177.14285 177.14285 0 1 1 373.57144,489.50504 A 177.14285 177.14285 0 1 1 727.85715 489.50504 z" opacity="1" transform="matrix(1.0321,0,0,0.9902456,-196.345,-106.78923)"/><path id="path7995" fill="none" fill-rule="evenodd" stroke="#000" stroke-dasharray="none" stroke-linecap="butt" stroke-linejoin="miter" stroke-miterlimit="4" stroke-opacity="1" stroke-width=".001" d="M 316.24367,377.94098 C 428.20795,377.94098 427.85081,377.94098 427.85081,377.94098"/><use id="use7997" width="744.094" height="1052.362" x="0" y="0" transform="matrix(0,-1,1,0,-5.8937328,749.98823)" xlink:href="#path7995"/><path id="path8035" fill="none" stroke="#000" stroke-dasharray="none" stroke-linecap="square" stroke-linejoin="miter" stroke-miterlimit="4" stroke-opacity="1" stroke-width="14.838" d="m 352.80028,387.99606 c 90.13978,-46.6635 90.13978,-46.6635 90.13978,-46.6635"/><path id="path3145" fill="#000" fill-opacity="1" fill-rule="evenodd" stroke="none" stroke-dasharray="none" stroke-dashoffset="0" stroke-linecap="square" stroke-linejoin="miter" stroke-miterlimit="4" stroke-opacity=".548" stroke-width="10" d="M 373.07812 377.94031 A 1.03125 1.03125 0 1 1 371.01562,377.94031 A 1.03125 1.03125 0 1 1 373.07812 377.94031 z" opacity="1" transform="matrix(14.176165,0,0,14.176165,-4902.1511,-4979.8039)"/></g><metadata id="metadata18"/></svg>