<svg xmlns="http://www.w3.org/2000/svg" xmlns:svg="http://www.w3.org/2000/svg" xmlns:xlink="http://www.w3.org/1999/xlink" id="svg2" width="443.147" height="443.147" version="1.1"><defs id="defs3"><marker id="Arrow2Mend" orient="auto" overflow="visible" refX="0" refY="0"><path id="path3853" fill-rule="evenodd" stroke-linejoin="round" stroke-width=".625" d="M 8.7185878,4.0337352 L -2.2072895,0.016013256 L 8.7185884,-4.0017078 C 6.9730900,-1.6296469 6.9831476,1.6157441 8.7185878,4.0337352 z" font-size="12" transform="scale(0.6) rotate(180) translate(0,0)"/></marker><marker id="Arrow1Sstart" orient="auto" overflow="visible" refX="0" refY="0"><path id="path3838" fill-rule="evenodd" stroke="#000" stroke-width="1pt" marker-start="none" d="M 0.0,0.0 L 5.0,-5.0 L -12.5,0.0 L 5.0,5.0 L 0.0,0.0 z" transform="scale(0.2) translate(6,0)"/></marker><marker id="Arrow1Send" orient="auto" overflow="visible" refX="0" refY="0"><path id="path3830" fill-rule="evenodd" stroke="#000" stroke-width="1pt" marker-start="none" d="M 0.0,0.0 L 5.0,-5.0 L -12.5,0.0 L 5.0,5.0 L 0.0,0.0 z" transform="scale(0.2) rotate(180) translate(6,0)"/></marker><marker id="Torso" orient="auto" overflow="visible" refX="0" refY="0"><g id="g4028" transform="scale(0.7)"><path id="path4030" fill="none" fill-opacity=".75" fill-rule="evenodd" stroke="#000" stroke-width="1.25" marker-end="none" marker-mid="none" marker-start="none" d="M -4.7792281,-3.2395420 C -2.4288541,-2.8736027 0.52103922,-1.3019943 0.25792722,0.38794346 C -0.0051877922,2.0778819 -2.2126741,2.6176539 -4.5630471,2.2517169 C -6.9134221,1.8857769 -8.5210350,0.75201414 -8.2579220,-0.93792336 C -7.9948090,-2.6278615 -7.1296041,-3.6054813 -4.7792281,-3.2395420 z"/><path id="path4032" fill="none" fill-opacity=".75" fill-rule="evenodd" stroke="#000" stroke-width="1.333" marker-end="none" d="M 4.4598789,0.088665736 C -2.5564571,-4.3783320 5.2248769,-3.9061806 -0.84829578,-8.7197331"/><path id="path4034" fill="none" fill-opacity=".75" fill-rule="evenodd" stroke="#000" stroke-width="1.333" marker-end="none" marker-start="none" d="M 4.9298719,0.057520736 C -1.3872731,1.7494689 1.8027579,5.4782079 -4.9448731,7.5462725"/><rect id="rect4036" width="2.637" height="2.761" x="-10.392" y="-1.741" fill-rule="evenodd" stroke-width="1.333" marker-end="none" transform="matrix(0.527536,-0.849533,0.887668,0.460484,0,0)"/><rect id="rect4038" width="2.733" height="2.861" x="4.959" y="-7.963" fill-rule="evenodd" stroke-width="1.333" marker-end="none" transform="matrix(0.671205,-0.741272,0.790802,0.612072,0,0)"/><path id="path4040" fill="red" fill-opacity=".75" fill-rule="evenodd" stroke="#000" stroke-width="1.333" marker-end="none" marker-start="none" d="m 16.779951,-28.685045 c 0,0.335412 -0.271905,0.607317 -0.607317,0.607317 -0.335412,0 -0.607317,-0.271905 -0.607317,-0.607317 0,-0.335412 0.271905,-0.607318 0.607317,-0.607318 0.335412,0 0.607317,0.271906 0.607317,0.607318 z" transform="matrix(0,-1.109517,1.109517,0,25.96648,19.71619)"/><path id="path4042" fill="red" fill-opacity=".75" fill-rule="evenodd" stroke="#000" stroke-width="1.333" marker-end="none" marker-start="none" d="m 16.779951,-28.685045 c 0,0.335412 -0.271905,0.607317 -0.607317,0.607317 -0.335412,0 -0.607317,-0.271905 -0.607317,-0.607317 0,-0.335412 0.271905,-0.607318 0.607317,-0.607318 0.335412,0 0.607317,0.271906 0.607317,0.607318 z" transform="matrix(0,-1.109517,1.109517,0,26.82450,16.99126)"/></g></marker><marker id="Arrow1Lend" orient="auto" overflow="visible" refX="0" refY="0"><path id="path3818" fill-rule="evenodd" stroke="#000" stroke-width="1pt" marker-start="none" d="M 0.0,0.0 L 5.0,-5.0 L -12.5,0.0 L 5.0,5.0 L 0.0,0.0 z" transform="scale(0.8) rotate(180) translate(12.5,0)"/></marker><marker id="Arrow2Send" orient="auto" overflow="visible" refX="0" refY="0"><path id="path3848" fill-rule="evenodd" stroke-linejoin="round" stroke-width=".625" d="M 8.7185878,4.0337352 L -2.2072895,0.016013256 L 8.7185884,-4.0017078 C 6.9730900,-1.6296469 6.9831476,1.6157441 8.7185878,4.0337352 z" font-size="12" transform="scale(0.3) rotate(180) translate(-2.3,0)"/></marker></defs><g id="layer1" transform="translate(-150.47376,-156.3675)"><path id="path3132" fill="none" stroke="#000" stroke-linecap="square" stroke-linejoin="miter" stroke-opacity="1" stroke-width="12.348" d="m 372.104,593.34057 c 0,-430.79919 0,-430.79919 0,-430.79919"/><use id="use4103" width="744.094" height="1052.362" x="0" y="0" transform="matrix(0,1,-1,0,749.98821,5.8369752)" xlink:href="#path3132"/><use id="use5074" width="744.094" height="1052.362" x="0" y="0" transform="matrix(0.8660254,-0.5,0.5,0.8660254,-139.17477,236.68649)" xlink:href="#path3132"/><use id="use5076" width="744.094" height="1052.362" x="0" y="0" transform="matrix(0.5,-0.8660254,0.8660254,0.5,-141.31125,511.22201)" xlink:href="#path3132"/><use id="use6051" width="744.094" height="1052.362" x="0" y="0" transform="matrix(0.5,0.8660254,-0.8660254,0.5,513.30173,-133.28103)" xlink:href="#path3132"/><use id="use6053" width="744.094" height="1052.362" x="0" y="0" transform="matrix(0.8660254,0.5,-0.5,0.8660254,238.76621,-135.41751)" xlink:href="#path3132"/><path id="path2159" fill="#fff" fill-opacity="1" fill-rule="evenodd" stroke="none" d="m 727.85715,489.50504 c 0,97.83329 -79.30956,177.14285 -177.14286,177.14285 -97.83329,0 -177.14285,-79.30956 -177.14285,-177.14285 0,-97.8333 79.30956,-177.14286 177.14285,-177.14286 97.8333,0 177.14286,79.30956 177.14286,177.14286 z" transform="matrix(1.0321,0,0,0.9902456,-196.345,-106.78923)"/><path id="path7995" fill="none" stroke="#000" stroke-dasharray="none" stroke-linecap="butt" stroke-linejoin="miter" stroke-miterlimit="4" stroke-opacity="1" stroke-width=".001" d="m 316.24367,377.94098 c 111.96428,0 111.60714,0 111.60714,0"/><use id="use7997" width="744.094" height="1052.362" x="0" y="0" transform="matrix(0,-1,1,0,-5.8937328,749.98823)" xlink:href="#path7995"/><path id="path8035" fill="none" stroke="#000" stroke-dasharray="none" stroke-linecap="square" stroke-linejoin="miter" stroke-miterlimit="4" stroke-opacity=".392" stroke-width="14.838" d="m 352.80028,387.99606 c 90.13978,-46.6635 90.13978,-46.6635 90.13978,-46.6635"/><path id="path3145" fill="#000" fill-opacity="1" fill-rule="evenodd" stroke="none" d="m 373.07812,377.94031 c 0,0.56954 -0.4617,1.03125 -1.03125,1.03125 -0.56954,0 -1.03125,-0.46171 -1.03125,-1.03125 0,-0.56955 0.46171,-1.03125 1.03125,-1.03125 0.56955,0 1.03125,0.4617 1.03125,1.03125 z" transform="matrix(14.176165,0,0,14.176165,-4902.1511,-4979.8039)"/><path id="path3034" fill="none" stroke="#000" stroke-dasharray="none" stroke-linecap="square" stroke-linejoin="miter" stroke-miterlimit="4" stroke-opacity="1" stroke-width="14.838" d="M 382.04577,358.66375 C 334.9827,448.59556 334.9827,448.59556 334.9827,448.59556"/><path id="path3810" fill="none" stroke="#000" stroke-dasharray="none" stroke-miterlimit="4" stroke-opacity="1" stroke-width="3.3" marker-end="url(#Arrow2Mend)" d="M 13.701333,43.921167 C 31.996527,88.193668 10.937759,138.91481 -33.334742,157.21 c -21.527591,8.89607 -45.728592,8.75963 -67.154508,-0.37861" transform="translate(438.50834,300.89343)"/></g><metadata id="metadata18"/></svg>