<svg xmlns="http://www.w3.org/2000/svg" xmlns:svg="http://www.w3.org/2000/svg" id="svg548" width="497.222" height="377.266" version="1.1"><defs id="defs550"><filter id="filter3232" color-interpolation-filters="sRGB"><feGaussianBlur id="feGaussianBlur3234" stdDeviation="1.805"/></filter><filter id="filter3308" width="1.261" height="1.197" x="-.131" y="-.099" color-interpolation-filters="sRGB"><feGaussianBlur id="feGaussianBlur3310" stdDeviation="4.79"/></filter><filter id="filter3344" width="1.046" height="1.355" x="-.023" y="-.178" color-interpolation-filters="sRGB"><feGaussianBlur id="feGaussianBlur3346" stdDeviation="1.929"/></filter><filter id="filter3452" width="1.665" height="1.214" x="-.332" y="-.107" color-interpolation-filters="sRGB"><feGaussianBlur id="feGaussianBlur3454" stdDeviation="1.663"/></filter><filter id="filter3504" width="1.047" height="1.851" x="-.024" y="-.426" color-interpolation-filters="sRGB"><feGaussianBlur id="feGaussianBlur3506" stdDeviation="2.098"/></filter></defs><path id="path597" fill="#006cc1" fill-rule="evenodd" stroke="#000" stroke-linejoin="round" stroke-width="10" d="m 57.299446,319.38563 c 0,0 51.270004,-264.280003 185.620004,-267.810003 152.91,4.41 209.48,252.790003 212.13,267.810003 -60.11,47.73 -262.52,90.16 -397.750004,0 z"/><path id="path598" fill="#ffac00" fill-rule="evenodd" stroke="#000" stroke-linejoin="round" stroke-width="10" d="m 162.47945,361.81563 c -10.01,-164.4 66.59,-304.940003 78.67,-310.250003 16.79,2.66 124.63,205.070003 108.72,310.250003 -45.97,10.6 -134.35,15.91 -187.39,0 z"/><path id="path599" fill="#ffed00" fill-rule="evenodd" stroke="#000" stroke-linejoin="round" stroke-width="10" d="m 5.0148456,38.745627 c -1.7677,19.45 154.8100044,32.27 211.3800044,24.32 16.79,-7.08 30.94,-10.61 48.61,-0.89 68.95,15.91 230.7,8.84 227.16,-16.79 -17.68,-22.984 -162.63,-20.332 -231.58,-7.07 -8.84,5.3 -23.86,9.72 -44.19,-2.65 -14.14,-9.728 -205.350004,-17.861 -211.3800044,3.08 z"/><path id="path600" fill="#ac00ff" fill-rule="evenodd" stroke="#000" stroke-linejoin="round" stroke-width="10" d="m 226.11945,42.735627 c -1.77,9.72 25.63,11.49 35.36,3.53 5.3,-52.148 -30.94,-56.567 -35.36,-3.53 z"/><path id="path601" fill="#fff" fill-opacity=".5" fill-rule="evenodd" d="M 61.719446,315.85563 C 90.887446,183.26563 158.94945,86.045627 188.11945,74.555627 43.159446,233.64563 155.40945,386.56563 61.719446,315.85563 z" filter="url(#filter3232)"/><path id="path602" fill="#fff" fill-opacity=".498" fill-rule="evenodd" d="m 242.02945,10.027627 c -7.95,8.839 -15.02,36.238 -9.72,35.358 20.33,9.72 2.65,-18.564 9.72,-35.358 z" filter="url(#filter3452)"/><path id="path603" fill-opacity=".25" fill-rule="evenodd" d="m 359.58945,353.85563 c 50.38,-40.66 63.64,-98.99 60.99,-116.67 7.95,13.26 36.24,72.48 23.86,82.2 -15.02,9.72 -35.35,22.1 -84.85,34.47 z" filter="url(#filter3308)"/><path id="path604" fill-opacity=".3" fill-rule="evenodd" d="m 269.42945,42.735627 c -5.3,-4.42 178.55,-21.217 212.13,1.76 -51.26,-11.487 -152.02,-7.07 -212.13,-1.76 z" filter="url(#filter3504)"/><path id="path605" fill="#fff" fill-opacity=".772" fill-rule="evenodd" d="m 11.052446,35.365627 c -15.0260004,7.07 136.410004,37.42 201.810004,21.51 -84.85,-4.42 -124.910004,3.23 -201.810004,-21.51 z" filter="url(#filter3344)"/><metadata id="metadata23"/></svg>